<svg width="919" height="91" viewBox="0 0 919 91" fill="none" xmlns="http://www.w3.org/2000/svg">
<path d="M884.129 73V31.144C884.129 28.776 884.673 27.016 885.761 25.864C886.913 24.712 888.673 24.168 891.041 24.232L918.593 25.192V33.256L893.441 32.392V73H884.129Z" fill="#1D1D1D"/>
<path d="M825.957 48.4241C825.957 40.8721 828.101 34.9521 832.389 30.6641C836.741 26.3761 842.437 24.2321 849.477 24.2321C856.453 24.2321 862.021 26.3121 866.181 30.4721C870.341 34.5681 872.421 40.2321 872.421 47.4641V50.9201H834.981C835.173 55.4641 836.517 59.1441 839.013 61.9601C841.573 64.7761 845.477 66.1841 850.725 66.1841C858.405 66.1841 863.077 62.8561 864.741 56.2001H874.053C873.093 60.8081 870.693 64.9361 866.853 68.5841C863.077 72.1681 857.701 73.9601 850.725 73.9601C842.469 73.9601 836.261 71.5601 832.101 66.7601C828.005 61.9601 825.957 55.8481 825.957 48.4241ZM834.981 44.3921H863.397C863.397 40.8081 862.181 37.8321 859.749 35.4641C857.381 33.0961 853.957 31.9121 849.477 31.9121C844.997 31.9121 841.445 33.1281 838.821 35.5601C836.261 37.9281 834.981 40.8721 834.981 44.3921Z" fill="#1D1D1D"/>
<path d="M797.987 24.2319C803.683 24.2319 808.131 25.9599 811.331 29.4159C814.595 32.8079 816.227 37.7999 816.227 44.3919V72.9999H806.819V45.7359C806.819 40.9359 805.891 37.5119 804.035 35.4639C802.243 33.3519 799.299 32.2959 795.203 32.2959C790.211 32.2959 786.211 34.0879 783.203 37.6719C780.195 41.1919 778.691 46.1199 778.691 52.4559V72.9999H769.379V2.43994H778.691V32.9679L777.059 39.0159H779.651C780.675 34.4719 782.723 30.8879 785.795 28.2639C788.931 25.5759 792.995 24.2319 797.987 24.2319Z" fill="#1D1D1D"/>
<path d="M741.89 65.992L758.978 64.936V73L739.49 73.96C737.186 74.088 735.458 73.576 734.306 72.424C733.154 71.208 732.578 69.416 732.578 67.048V33.256H721.922V25.192H732.578V13.48L741.89 10.6V25.192H757.058V33.256H741.89V65.992Z" fill="#1D1D1D"/>
<path d="M669.863 48.4241C669.863 40.8721 672.007 34.9521 676.295 30.6641C680.647 26.3761 686.343 24.2321 693.383 24.2321C700.359 24.2321 705.927 26.3121 710.087 30.4721C714.247 34.5681 716.327 40.2321 716.327 47.4641V50.9201H678.887C679.079 55.4641 680.423 59.1441 682.919 61.9601C685.479 64.7761 689.383 66.1841 694.631 66.1841C702.311 66.1841 706.983 62.8561 708.647 56.2001H717.959C716.999 60.8081 714.599 64.9361 710.759 68.5841C706.983 72.1681 701.607 73.9601 694.631 73.9601C686.375 73.9601 680.167 71.5601 676.007 66.7601C671.911 61.9601 669.863 55.8481 669.863 48.4241ZM678.887 44.3921H707.303C707.303 40.8081 706.087 37.8321 703.655 35.4641C701.287 33.0961 697.863 31.9121 693.383 31.9121C688.903 31.9121 685.351 33.1281 682.727 35.5601C680.167 37.9281 678.887 40.8721 678.887 44.3921Z" fill="#1D1D1D"/>
<path d="M660.704 25.1921H664.928V33.2561H660.992C658.624 33.2561 656.672 33.8001 655.136 34.8881C657.056 37.3201 658.016 40.3921 658.016 44.1041C658.016 48.9041 656.128 53.0001 652.352 56.3921C648.64 59.7841 643.104 62.8241 635.744 65.5121C639.52 65.1281 643.008 65.0641 646.208 65.3201C649.472 65.5121 652.16 66.5681 654.272 68.4881C656.384 70.3441 657.44 72.9361 657.44 76.2641C657.44 78.4401 657.056 80.2961 656.288 81.8321C655.584 83.4321 654.336 84.7761 652.544 85.8641C650.816 86.9521 648.8 87.8161 646.496 88.4561C644.256 89.1601 641.216 89.6721 637.376 89.9921C633.6 90.3761 629.728 90.6321 625.76 90.7601C621.792 90.8881 616.832 90.9521 610.88 90.9521V82.8881C625.856 82.8881 635.776 82.4401 640.64 81.5441C645.568 80.6481 648.032 78.5361 648.032 75.2081C648.032 68.0401 637.12 67.4001 615.296 73.2881L613.664 67.2401C622.368 65.2561 630.4 63.2081 637.76 61.0961V58.5041C629.44 60.8081 622.304 60.6801 616.352 58.1201C610.464 55.4961 607.52 50.6001 607.52 43.4321C607.52 37.1601 609.824 32.3921 614.432 29.1281C619.104 25.8641 625.12 24.2321 632.48 24.2321C639.2 24.2321 644.8 25.7681 649.28 28.8401C651.456 27.3041 653.312 26.3121 654.848 25.8641C656.448 25.4161 658.4 25.1921 660.704 25.1921ZM616.832 43.7201C616.832 51.4641 622.144 55.3361 632.768 55.3361C643.392 55.3361 648.704 51.4641 648.704 43.7201C648.704 36.1041 643.392 32.2961 632.768 32.2961C622.144 32.2961 616.832 36.1041 616.832 43.7201Z" fill="#1D1D1D"/>
<path d="M549.582 49.0001C549.582 41.7681 551.95 35.8481 556.686 31.2401C561.422 26.5681 567.598 24.2321 575.214 24.2321C582.766 24.2321 588.91 26.5681 593.646 31.2401C598.382 35.8481 600.75 41.7681 600.75 49.0001C600.75 56.2961 598.382 62.2801 593.646 66.9521C588.91 71.6241 582.766 73.9601 575.214 73.9601C567.598 73.9601 561.422 71.6561 556.686 67.0481C551.95 62.3761 549.582 56.3601 549.582 49.0001ZM558.894 49.0001C558.894 53.9921 560.334 58.0561 563.214 61.1921C566.094 64.3281 570.094 65.8961 575.214 65.8961C580.27 65.8961 584.206 64.3281 587.022 61.1921C589.902 58.0561 591.342 53.9921 591.342 49.0001C591.342 44.0721 589.902 40.0721 587.022 37.0001C584.206 33.8641 580.27 32.2961 575.214 32.2961C570.094 32.2961 566.094 33.8641 563.214 37.0001C560.334 40.0721 558.894 44.0721 558.894 49.0001Z" fill="#1D1D1D"/>
<path d="M526.64 65.992L543.728 64.936V73L524.24 73.96C521.936 74.088 520.208 73.576 519.056 72.424C517.904 71.208 517.328 69.416 517.328 67.048V33.256H506.672V25.192H517.328V13.48L526.64 10.6V25.192H541.808V33.256H526.64V65.992Z" fill="#1D1D1D"/>
<path d="M459.316 72.9999L444.148 51.4959L433.972 56.8719V72.9999H424.66V2.43994H433.972V47.0799L457.78 34.5039L457.012 25.1919H466.42L466.996 34.2159C467.188 37.6079 465.748 40.1039 462.676 41.7039L451.156 47.7519L451.828 47.4639L469.876 72.9999H459.316Z" fill="#2718A9"/>
<path d="M381.441 73V31.144C381.441 28.776 381.985 27.016 383.073 25.864C384.225 24.712 385.985 24.168 388.353 24.232L415.905 25.192V33.256L390.753 32.392V73H381.441Z" fill="#2718A9"/>
<path d="M320.27 49.0001C320.27 41.7681 322.638 35.8481 327.374 31.2401C332.11 26.5681 338.286 24.2321 345.902 24.2321C353.454 24.2321 359.598 26.5681 364.334 31.2401C369.07 35.8481 371.438 41.7681 371.438 49.0001C371.438 56.2961 369.07 62.2801 364.334 66.9521C359.598 71.6241 353.454 73.9601 345.902 73.9601C338.286 73.9601 332.11 71.6561 327.374 67.0481C322.638 62.3761 320.27 56.3601 320.27 49.0001ZM329.582 49.0001C329.582 53.9921 331.022 58.0561 333.902 61.1921C336.782 64.3281 340.782 65.8961 345.902 65.8961C350.958 65.8961 354.894 64.3281 357.71 61.1921C360.59 58.0561 362.03 53.9921 362.03 49.0001C362.03 44.0721 360.59 40.0721 357.71 37.0001C354.894 33.8641 350.958 32.2961 345.902 32.2961C340.782 32.2961 336.782 33.8641 333.902 37.0001C331.022 40.0721 329.582 44.0721 329.582 49.0001Z" fill="#2718A9"/>
<path d="M235.453 25.192H244.381L254.845 70.408H257.341L265.885 25.192H285.277L293.725 70.408H296.317L306.781 25.192H315.709L304.669 73H285.373L276.829 27.688H274.237L265.693 73H246.493L235.453 25.192Z" fill="#2718A9"/>
<path d="M199.642 60.4241C199.642 64.5201 198.106 67.8161 195.034 70.3121C191.962 72.7441 186.97 73.9601 180.058 73.9601C165.082 73.9601 157.594 67.7841 157.594 55.4321H166.906C166.906 62.8561 171.354 66.5681 180.25 66.5681C183.706 66.5681 186.234 66.1201 187.834 65.2241C189.498 64.2641 190.33 62.7281 190.33 60.6161C190.33 59.8481 190.234 59.1441 190.042 58.5041C189.85 57.8641 189.466 57.2881 188.89 56.7761C188.378 56.2641 187.898 55.8481 187.45 55.5281C187.066 55.2081 186.33 54.8561 185.242 54.4721C184.218 54.0241 183.45 53.7041 182.938 53.5121C182.426 53.3201 181.434 53.0001 179.962 52.5521C178.49 52.1041 177.434 51.7841 176.794 51.5921C173.978 50.6961 171.77 49.9601 170.17 49.3841C168.57 48.7441 166.842 47.8481 164.986 46.6961C163.194 45.5441 161.882 44.1681 161.05 42.5681C160.218 40.9681 159.802 39.0801 159.802 36.9041C159.802 33.0001 161.402 29.9281 164.602 27.6881C167.802 25.3841 172.218 24.2321 177.85 24.2321C184.89 24.2321 190.01 25.8001 193.21 28.9361C196.41 32.0081 198.01 35.8481 198.01 40.4561H188.698C188.698 34.5681 185.082 31.6241 177.85 31.6241C172.026 31.6241 169.114 33.3841 169.114 36.9041C169.114 38.8241 169.914 40.2961 171.514 41.3201C173.114 42.3441 176.058 43.5601 180.346 44.9681C180.794 45.0961 181.722 45.3841 183.13 45.8321C184.538 46.2801 185.498 46.6001 186.01 46.7921C186.522 46.9841 187.386 47.3041 188.602 47.7521C189.818 48.2001 190.682 48.5521 191.194 48.8081C191.77 49.0641 192.538 49.4801 193.498 50.0561C194.458 50.5681 195.162 51.0481 195.61 51.4961C196.058 51.9441 196.602 52.5201 197.242 53.2241C197.882 53.8641 198.33 54.5361 198.586 55.2401C198.842 55.9441 199.066 56.7441 199.258 57.6401C199.514 58.4721 199.642 59.4001 199.642 60.4241Z" fill="#2718A9"/>
<path d="M147.433 0.712036L155.209 2.82404L148.585 27.592L140.809 25.48L147.433 0.712036Z" fill="#2718A9"/>
<path d="M113.952 65.992L131.04 64.936V73L111.552 73.96C109.248 74.088 107.52 73.576 106.368 72.424C105.216 71.208 104.64 69.416 104.64 67.048V33.256H93.9844V25.192H104.64V13.48L113.952 10.6V25.192H129.12V33.256H113.952V65.992Z" fill="#2718A9"/>
<path d="M41.9277 48.4241C41.9277 40.8721 44.0717 34.9521 48.3597 30.6641C52.7117 26.3761 58.4077 24.2321 65.4477 24.2321C72.4237 24.2321 77.9917 26.3121 82.1517 30.4721C86.3117 34.5681 88.3917 40.2321 88.3917 47.4641V50.9201H50.9517C51.1437 55.4641 52.4877 59.1441 54.9837 61.9601C57.5437 64.7761 61.4477 66.1841 66.6957 66.1841C74.3757 66.1841 79.0477 62.8561 80.7117 56.2001H90.0237C89.0637 60.8081 86.6637 64.9361 82.8237 68.5841C79.0477 72.1681 73.6717 73.9601 66.6957 73.9601C58.4397 73.9601 52.2317 71.5601 48.0717 66.7601C43.9757 61.9601 41.9277 55.8481 41.9277 48.4241ZM50.9517 44.3921H79.3677C79.3677 40.8081 78.1517 37.8321 75.7197 35.4641C73.3517 33.0961 69.9277 31.9121 65.4477 31.9121C60.9677 31.9121 57.4157 33.1281 54.7917 35.5601C52.2317 37.9281 50.9517 40.8721 50.9517 44.3921Z" fill="#2718A9"/>
<path d="M0.935547 72.9999V64.9359H14.2795V9.63994L4.10355 10.5039V2.43994L16.6795 1.57594C21.2875 1.19194 23.5915 3.46394 23.5915 8.39194V64.9359H37.0315V72.9999H0.935547Z" fill="#2718A9"/>
</svg>
