<svg width="113" height="20" viewBox="0 0 113 20" fill="none" xmlns="http://www.w3.org/2000/svg">
<path d="M106.284 18.7465V17.7004L105.96 17.3918H104.909L104.193 16.6543V7.25972L104.706 6.73604L104.382 6.4274L103.856 6.95108H102.804L102.09 6.21363V5.16753L102.804 4.43008H103.856L104.382 4.95376L104.706 4.64512L104.193 4.12144V3.07534L104.909 2.33789H105.96L106.701 3.07534V4.12144L106.175 4.64512L106.485 4.95376L107.024 4.43008H110.181L110.896 5.16753V6.21363L110.181 6.95108H107.024L106.485 6.4274L106.175 6.73604L106.701 7.25972V16.6531L107.026 16.9617H110.183L110.479 16.6531V15.607L111.234 14.8695H112.286L113 15.607V16.6531L112.286 17.3905H111.234L110.897 17.6992V18.7453L110.183 19.4827H107.026L106.284 18.7453V18.7465Z" fill="#2718A9"/>
<path d="M94.5925 0.733869L95.3336 0H100.593L101.309 0.733869V1.78024L100.593 2.54101H95.3336L95.0095 2.83942V6.01824L94.4831 6.54847L94.82 6.87506L95.3324 6.34483H98.4878L99.2022 7.1056V8.12507L98.4878 8.88584H95.3324L94.82 8.35561L94.4831 8.6822L95.0095 9.21243V18.7361L94.2683 19.4828H93.2436L92.5025 18.7361V9.21243L93.0148 8.6822L92.6906 8.35561L92.1643 8.88584H91.1129L90.3984 8.12507V7.1056L91.1129 6.34483H92.1643L92.6906 6.87506L93.0148 6.54847L92.5025 6.01824V2.83942L93.2436 2.11964H94.2683L94.5925 1.78024V0.733869Z" fill="#2718A9"/>
<path d="M79.9702 19.4827L79.2556 18.7192V17.6361L78.9186 17.3165H77.867L77.1523 16.553V6.82618L77.867 6.04825H78.9186L79.2556 5.7431V4.66001L79.9702 3.89648H85.2181L85.9595 4.66001V5.7431L86.2964 6.04825H87.348L88.0627 6.82618V16.5517L87.348 17.3152H86.2964L85.9595 17.6348V18.7179L85.2181 19.4814H79.9702V19.4827ZM79.9702 16.8712H85.2181L85.5424 16.5517V6.82618L85.2181 6.50663H79.9702L79.6599 6.82618V16.5517L79.9702 16.8712Z" fill="#2718A9"/>
<path d="M71.1509 11.148V12.2312L71.4878 12.5364H72.5395L73.2541 13.3145V16.5525L72.5395 17.3162H71.4878L71.1509 17.6358V18.719L70.4362 19.4827H65.1616L64.447 18.719V17.6358L64.11 17.3162H63.0584L62.3438 16.5525V15.4692L63.0584 14.7056H64.11L64.8513 15.4692V16.5525L65.1616 16.8721H70.4362L70.7325 16.5525V13.3145L70.4362 12.9949H65.1616L64.447 12.2312V11.148L64.11 10.8283H63.0584L62.3438 10.0647V6.82668L63.0584 6.04861H64.11L64.447 5.74341V4.66014L65.1616 3.89648H70.4362L71.1509 4.66014V5.74341L71.4878 6.04861H72.5395L73.2541 6.82668V7.89684L72.5395 8.67491H71.4878L70.7325 7.89684V6.82668L70.4362 6.50707H65.1616L64.8513 6.82668V10.0647L65.1616 10.3843H70.4362L71.1509 11.148Z" fill="#2718A9"/>
<path d="M53.7704 18.7465V17.7004L53.4693 17.3918H52.4928L51.8292 16.6543V7.25972L52.305 6.73604L52.0039 6.4274L51.5151 6.95108H50.5386L49.875 6.21363V5.16753L50.5386 4.43008H51.5151L52.0039 4.95376L52.305 4.64512L51.8292 4.12144V3.07534L52.4928 2.33789H53.4693L54.1577 3.07534V4.12144L53.6688 4.64512L53.9569 4.95376L54.4576 4.43008H57.3883L58.0519 5.16753V6.21363L57.3883 6.95108H54.4576L53.9569 6.4274L53.6688 6.73604L54.1577 7.25972V16.6531L54.4588 16.9617H57.3894L57.6646 16.6531V15.607L58.3659 14.8695H59.3424L60.006 15.607V16.6531L59.3424 17.3905H58.3659L58.053 17.6992V18.7453L57.3894 19.4827H54.4588L53.7704 18.7453V18.7465Z" fill="#2718A9"/>
<path d="M45.436 18.7192L44.7214 19.4827H39.4468L38.7321 18.7192V17.6362L38.3952 17.2892H37.3435L36.6289 16.5532V6.82725L37.3435 6.04938H38.3952L38.7321 5.71544V4.63245L39.4468 3.89648H44.7214L45.436 4.63245V5.71544L45.773 6.04938H46.8246L47.5393 6.82725V10.0644L46.8246 10.8004H45.773L45.436 11.1474V12.2304L44.7214 12.9664H39.4468L38.9203 12.4242L38.6101 12.7713L39.1365 13.3134V16.5506L39.4468 16.8701H44.7214L45.0177 16.5506V15.4676L45.773 14.7042H46.8246L47.5393 15.4676V16.5506L46.8246 17.2866H45.773L45.436 17.6336V18.7166V18.7192ZM39.4468 10.384H44.7214L45.0177 10.0644V6.82725L44.7214 6.48022H39.4468L39.1365 6.82725V10.0644L38.6101 10.6066L38.9203 10.9261L39.4468 10.384Z" fill="#2718A9"/>
<path d="M30.6274 11.148V12.2312L30.9644 12.5364H32.016L32.7307 13.3145V16.5525L32.016 17.3162H30.9644L30.6274 17.6358V18.719L29.9128 19.4827H24.6382L23.9235 18.719V17.6358L23.5866 17.3162H22.535L21.8203 16.5525V15.4692L22.535 14.7056H23.5866L24.3279 15.4692V16.5525L24.6382 16.8721H29.9128L30.2091 16.5525V13.3145L29.9128 12.9949H24.6382L23.9235 12.2312V11.148L23.5866 10.8283H22.535L21.8203 10.0647V6.82668L22.535 6.04861H23.5866L23.9235 5.74341V4.66014L24.6382 3.89648H29.9128L30.6274 4.66014V5.74341L30.9644 6.04861H32.016L32.7307 6.82668V7.89684L32.016 8.67491H30.9644L30.2091 7.89684V6.82668L29.9128 6.50707H24.6382L24.3279 6.82668V10.0647L24.6382 10.3843H29.9128L30.6274 11.148Z" fill="#2718A9"/>
<path d="M14.6546 2.86651L15.2054 2.33624L14.8954 2.03781L14.3167 2.56807H13.2444L12.4688 1.82135V0.760815L13.2444 0H16.5331L17.2954 0.760815V16.6175L16.7446 17.1478L17.0839 17.4462L17.6346 16.9301H18.7349L19.4825 17.6768V18.736L18.7349 19.4828H15.4328L14.6572 18.736V2.86651H14.6546Z" fill="#2718A9"/>
<path d="M2.8389 19.4801L2.126 18.7165V17.6335L1.78985 17.3139H0.739534L0 16.5504V13.3129L0.739534 12.535H1.78858L2.12473 12.2298V11.1467L2.83763 10.3832H8.07272L8.59787 10.9254L8.92134 10.6058L8.41014 10.0637V6.82618L8.07399 6.50663H2.8389L2.52938 6.82618V7.89617L1.78985 8.67411H0.739534L0 7.89617V6.82618L0.739534 6.04825H1.78858L2.12473 5.7431V4.66001L2.83763 3.89648H8.07272L8.81225 4.66001V5.7431L9.1484 6.04825H10.1708L10.9103 6.82618V18.7192L10.1708 19.4827H2.8389V19.4801ZM2.8389 16.8686H8.07399L8.59914 17.3964L8.92261 17.0913L8.41141 16.5491V13.3116L8.92261 12.7694L8.59914 12.4498L8.07399 12.992H2.8389L2.52938 13.3116V16.5491L2.8389 16.8686Z" fill="#2718A9"/>
</svg>
