<svg width="124" height="20" viewBox="0 0 124 20" fill="none" xmlns="http://www.w3.org/2000/svg">
<path d="M116.162 19.0051V17.959L115.784 17.6503H114.557L113.722 16.9129V7.51827L114.321 6.99459L113.943 6.68595L113.328 7.20963H112.101L111.267 6.47217V5.42608L112.101 4.68863H113.328L113.943 5.21231L114.321 4.90366L113.722 4.37998V3.33389L114.557 2.59644H115.784L116.649 3.33389V4.37998L116.035 4.90366L116.397 5.21231L117.026 4.68863H120.71L121.544 5.42608V6.47217L120.71 7.20963H117.026L116.397 6.68595L116.035 6.99459L116.649 7.51827V16.9116L117.027 17.2203H120.712L121.058 16.9116V15.8655L121.939 15.1281H123.166L124 15.8655V16.9116L123.166 17.6491H121.939L121.546 17.9577V19.0038L120.712 19.7413H117.027L116.162 19.0038V19.0051Z" fill="#2718A9"/>
<path d="M103.503 0.992414L104.368 0.258545H110.506L111.341 0.992414V2.03879L110.506 2.79955H104.368L103.99 3.09797V6.27679L103.375 6.80702L103.768 7.13361L104.366 6.60338H108.049L108.883 7.36414V8.38362L108.049 9.14438H104.366L103.768 8.61415L103.375 8.94075L103.99 9.47098V18.9946L103.125 19.7413H101.929L101.064 18.9946V9.47098L101.662 8.94075L101.283 8.61415L100.669 9.14438H99.4422L98.6084 8.38362V7.36414L99.4422 6.60338H100.669L101.283 7.13361L101.662 6.80702L101.064 6.27679V3.09797L101.929 2.37819H103.125L103.503 2.03879V0.992414Z" fill="#2718A9"/>
<path d="M87.4196 19.7412L86.5856 18.9777V17.8946L86.1924 17.5751H84.9651L84.1311 16.8115V7.08473L84.9651 6.30679H86.1924L86.5856 6.00164V4.91856L87.4196 4.15503H93.544L94.4092 4.91856V6.00164L94.8024 6.30679H96.0297L96.8637 7.08473V16.8102L96.0297 17.5738H94.8024L94.4092 17.8933V18.9764L93.544 19.7399H87.4196V19.7412ZM87.4196 17.1298H93.544L93.9224 16.8102V7.08473L93.544 6.76517H87.4196L87.0575 7.08473V16.8102L87.4196 17.1298Z" fill="#2718A9"/>
<path d="M78.1133 11.4065V12.4898L78.5065 12.795H79.7338L80.5678 13.573V16.811L79.7338 17.5747H78.5065L78.1133 17.8943V18.9776L77.2793 19.7412H71.1237L70.2897 18.9776V17.8943L69.8965 17.5747H68.6692L67.8352 16.811V15.7278L68.6692 14.9641H69.8965L70.7616 15.7278V16.811L71.1237 17.1307H77.2793L77.625 16.811V13.573L77.2793 13.2534H71.1237L70.2897 12.4898V11.4065L69.8965 11.0869H68.6692L67.8352 10.3232V7.08522L68.6692 6.30715H69.8965L70.2897 6.00195V4.91869L71.1237 4.15503H77.2793L78.1133 4.91869V6.00195L78.5065 6.30715H79.7338L80.5678 7.08522V8.15539L79.7338 8.93345H78.5065L77.625 8.15539V7.08522L77.2793 6.76561H71.1237L70.7616 7.08522V10.3232L71.1237 10.6428H77.2793L78.1133 11.4065Z" fill="#2718A9"/>
<path d="M58.815 19.0051V17.959L58.4636 17.6503H57.324L56.5496 16.9129V7.51827L57.1049 6.99459L56.7535 6.68595L56.1831 7.20963H55.0435L54.269 6.47217V5.42608L55.0435 4.68863H56.1831L56.7535 5.21231L57.1049 4.90366L56.5496 4.37998V3.33389L57.324 2.59644H58.4636L59.267 3.33389V4.37998L58.6965 4.90366L59.0327 5.21231L59.617 4.68863H63.0372L63.8116 5.42608V6.47217L63.0372 7.20963H59.617L59.0327 6.68595L58.6965 6.99459L59.267 7.51827V16.9116L59.6184 17.2203H63.0385L63.3596 16.9116V15.8655L64.1781 15.1281H65.3177L66.0922 15.8655V16.9116L65.3177 17.6491H64.1781L63.813 17.9577V19.0038L63.0385 19.7413H59.6184L58.815 19.0038V19.0051Z" fill="#2718A9"/>
<path d="M50.0735 18.9778L49.2395 19.7412H43.0839L42.2499 18.9778V17.8948L41.8567 17.5477H40.6294L39.7954 16.8118V7.08579L40.6294 6.30792H41.8567L42.2499 5.97399V4.89099L43.0839 4.15503H49.2395L50.0735 4.89099V5.97399L50.4667 6.30792H51.694L52.528 7.08579V10.323L51.694 11.059H50.4667L50.0735 11.406V12.489L49.2395 13.2249H43.0839L42.4695 12.6828L42.1075 13.0298L42.7218 13.572V16.8092L43.0839 17.1287H49.2395L49.5853 16.8092V15.7262L50.4667 14.9627H51.694L52.528 15.7262V16.8092L51.694 17.5451H50.4667L50.0735 17.8922V18.9752V18.9778ZM43.0839 10.6425H49.2395L49.5853 10.323V7.08579L49.2395 6.73876H43.0839L42.7218 7.08579V10.323L42.1075 10.8651L42.4695 11.1847L43.0839 10.6425Z" fill="#2718A9"/>
<path d="M33.7778 11.4065V12.4898L34.1711 12.795H35.3983L36.2323 13.573V16.811L35.3983 17.5747H34.1711L33.7778 17.8943V18.9776L32.9438 19.7412H26.7883L25.9543 18.9776V17.8943L25.561 17.5747H24.3338L23.4998 16.811V15.7278L24.3338 14.9641H25.561L26.4262 15.7278V16.811L26.7883 17.1307H32.9438L33.2896 16.811V13.573L32.9438 13.2534H26.7883L25.9543 12.4898V11.4065L25.561 11.0869H24.3338L23.4998 10.3232V7.08522L24.3338 6.30715H25.561L25.9543 6.00195V4.91869L26.7883 4.15503H32.9438L33.7778 4.91869V6.00195L34.1711 6.30715H35.3983L36.2323 7.08522V8.15539L35.3983 8.93345H34.1711L33.2896 8.15539V7.08522L32.9438 6.76561H26.7883L26.4262 7.08522V10.3232L26.7883 10.6428H32.9438L33.7778 11.4065Z" fill="#2718A9"/>
<path d="M16.1173 3.12505L16.7601 2.59479L16.3983 2.29635L15.7229 2.82662H14.4716L13.5664 2.07989V1.01936L14.4716 0.258545H18.3096L19.1992 1.01936V16.8761L18.5564 17.4063L18.9523 17.7048L19.5951 17.1886H20.8791L21.7516 17.9353V18.9946L20.8791 19.7413H17.0256L16.1204 18.9946V3.12505H16.1173Z" fill="#2718A9"/>
<path d="M3.31305 19.7386L2.48108 18.9751V17.892L2.08879 17.5724H0.86305L0 16.8089V13.5715L0.86305 12.7935H2.08731L2.4796 12.4884V11.4053L3.31157 10.6418H9.42101L10.0339 11.1839L10.4114 10.8644L9.81479 10.3222V7.08473L9.42249 6.76517H3.31305L2.95184 7.08473V8.15472L2.08879 8.93265H0.86305L0 8.15472V7.08473L0.86305 6.30679H2.08731L2.4796 6.00164V4.91856L3.31157 4.15503H9.42101L10.2841 4.91856V6.00164L10.6764 6.30679H11.8695L12.7326 7.08473V18.9777L11.8695 19.7412H3.31305V19.7386ZM3.31305 17.1272H9.42249L10.0354 17.655L10.4129 17.3498L9.81627 16.8076V13.5701L10.4129 13.0279L10.0354 12.7084L9.42249 13.2506H3.31305L2.95184 13.5701V16.8076L3.31305 17.1272Z" fill="#2718A9"/>
</svg>
